<svg xmlns="http://www.w3.org/2000/svg" version="1.1" xmlns:xlink="http://www.w3.org/1999/xlink" xmlns:svgjs="http://svgjs.dev/svgjs" width="664.1" height="539.42"><svg version="1.1" id="SvgjsSvg1029" xml:space="preserve" xmlns="http://www.w3.org/2000/svg" xmlns:svg="http://www.w3.org/2000/svg" viewBox="947.95 422.25 664.1 539.42"><defs id="SvgjsDefs1028"></defs><g id="SvgjsG1027" transform="matrix(1.3333333,0,0,-1.3333333,0,1440)"><g id="SvgjsG1026" transform="translate(710.9675,755.2285)"><path d="m 0,0 101.681,-67.044 149.417,-236.015 v -93.395 z" style="fill:#022856;fill-opacity:1;fill-rule:nonzero;stroke:none" id="SvgjsPath1025"></path></g><g id="SvgjsG1024" transform="translate(722.7997,762.4036)"><path d="M 0,0 97.7,-64.118 378.711,-64.637 479.145,0.897 Z" style="fill:#02318b;fill-opacity:1;fill-rule:nonzero;stroke:none" id="SvgjsPath1023"></path></g><g id="SvgjsG1022" transform="translate(830.5668,681.1796)"><path d="m 0,0 131.525,-208.113 -3,148.882 z" style="fill:#3999bf;fill-opacity:1;fill-rule:nonzero;stroke:none" id="SvgjsPath1021"></path></g><g id="SvgjsG1020" transform="translate(1209.0326,756.028)"><path d="m 0,0 -97.434,-64.244 -138.346,-239.894 -0.121,-93.116 z" style="fill:#3798c2;fill-opacity:1;fill-rule:nonzero;stroke:none" id="SvgjsPath1019"></path></g><g id="SvgjsG1018" transform="translate(1093.2375,683.8474)"><path d="M 0,0 -121.447,-211.65 -122.833,-62.205 2.315,1.172" style="fill:#02318b;fill-opacity:1;fill-rule:nonzero;stroke:none" id="SvgjsPath1017"></path></g><g id="SvgjsG1016" transform="translate(839.5433,688.0121)"><path d="M 0,0 H 240.16 L 125.388,-58.891 Z" style="fill:#042858;fill-opacity:1;fill-rule:nonzero;stroke:none" id="SvgjsPath1015"></path></g></g></svg><style>@media (prefers-color-scheme: light) { :root { filter: none; } }
@media (prefers-color-scheme: dark) { :root { filter: none; } }
</style></svg>